<svg width="45" height="45" viewBox="0 0 32 32" fill="none" xmlns="http://www.w3.org/2000/svg">
  <circle cx="16" cy="16" r="14.9943" fill="#3C2C61" stroke="url(#paint0_linear_1414_3)" stroke-width="2.01143"/>
  <path fill-rule="evenodd" clip-rule="evenodd" d="M13.1252 9.04791C13.8726 9.01351 14.1109 9.00586 16.0147 9.00586C17.9186 9.00586 18.1569 9.01414 18.9037 9.04791C19.6504 9.08168 20.1602 9.20083 20.6062 9.37351C21.0732 9.55 21.4969 9.8259 21.8474 10.1827C22.2042 10.5325 22.4795 10.9556 22.6553 11.4233C22.8286 11.8693 22.9471 12.379 22.9816 13.1245C23.016 13.8732 23.0236 14.1115 23.0236 16.0147C23.0236 17.9186 23.0153 18.1569 22.9816 18.9043C22.9478 19.6498 22.8286 20.1595 22.6553 20.6055C22.4795 21.0733 22.2037 21.4971 21.8474 21.8474C21.4969 22.2042 21.0732 22.4795 20.6062 22.6553C20.1602 22.8286 19.6504 22.9471 18.9049 22.9816C18.1569 23.016 17.9186 23.0236 16.0147 23.0236C14.1109 23.0236 13.8726 23.0153 13.1252 22.9816C12.3797 22.9478 11.8699 22.8286 11.4239 22.6553C10.9562 22.4794 10.5324 22.2037 10.1821 21.8474C9.8255 21.4974 9.54957 21.0738 9.37351 20.6062C9.20083 20.1602 9.08232 19.6504 9.04791 18.9049C9.01351 18.1563 9.00586 17.918 9.00586 16.0147C9.00586 14.1109 9.01414 13.8726 9.04791 13.1258C9.08168 12.379 9.20083 11.8693 9.37351 11.4233C9.54983 10.9557 9.82597 10.5321 10.1827 10.1821C10.5325 9.82558 10.9559 9.54965 11.4233 9.37351C11.8693 9.20083 12.379 9.08232 13.1245 9.04791H13.1252ZM18.847 10.3095C18.1078 10.2757 17.8861 10.2687 16.0147 10.2687C14.1434 10.2687 13.9216 10.2757 13.1825 10.3095C12.4988 10.3407 12.128 10.4548 11.8808 10.551C11.5539 10.6784 11.3201 10.8294 11.0748 11.0748C10.8422 11.301 10.6633 11.5764 10.551 11.8808C10.4548 12.128 10.3407 12.4988 10.3095 13.1825C10.2757 13.9216 10.2687 14.1434 10.2687 16.0147C10.2687 17.8861 10.2757 18.1078 10.3095 18.847C10.3407 19.5306 10.4548 19.9015 10.551 20.1487C10.6631 20.4526 10.8422 20.7285 11.0748 20.9547C11.3009 21.1873 11.5768 21.3663 11.8808 21.4785C12.128 21.5747 12.4988 21.6887 13.1825 21.72C13.9216 21.7537 14.1427 21.7607 16.0147 21.7607C17.8867 21.7607 18.1078 21.7537 18.847 21.72C19.5306 21.6887 19.9015 21.5747 20.1487 21.4785C20.4756 21.351 20.7094 21.2 20.9547 20.9547C21.1873 20.7285 21.3663 20.4526 21.4785 20.1487C21.5747 19.9015 21.6887 19.5306 21.72 18.847C21.7537 18.1078 21.7607 17.8861 21.7607 16.0147C21.7607 14.1434 21.7537 13.9216 21.72 13.1825C21.6887 12.4988 21.5747 12.128 21.4785 11.8808C21.351 11.5539 21.2 11.3201 20.9547 11.0748C20.7285 10.8422 20.4531 10.6633 20.1487 10.551C19.9015 10.4548 19.5306 10.3407 18.847 10.3095V10.3095ZM15.1195 18.1754C15.6195 18.3835 16.1762 18.4116 16.6945 18.2548C17.2129 18.0981 17.6608 17.7663 17.9617 17.316C18.2626 16.8657 18.3978 16.325 18.3443 15.7861C18.2907 15.2472 18.0518 14.7436 17.6682 14.3613C17.4237 14.1169 17.128 13.9298 16.8025 13.8134C16.477 13.697 16.1297 13.6542 15.7857 13.6882C15.4416 13.7221 15.1094 13.8319 14.8129 14.0096C14.5164 14.1874 14.263 14.4287 14.0709 14.7161C13.8788 15.0035 13.7529 15.33 13.7021 15.6719C13.6514 16.0139 13.6771 16.3628 13.7773 16.6936C13.8776 17.0245 14.05 17.329 14.2821 17.5852C14.5142 17.8414 14.8002 18.043 15.1195 18.1754ZM13.4673 13.4673C13.8019 13.1328 14.199 12.8674 14.6361 12.6864C15.0732 12.5053 15.5416 12.4122 16.0147 12.4122C16.4878 12.4122 16.9563 12.5053 17.3934 12.6864C17.8305 12.8674 18.2276 13.1328 18.5621 13.4673C18.8967 13.8019 19.162 14.199 19.3431 14.6361C19.5241 15.0732 19.6173 15.5416 19.6173 16.0147C19.6173 16.4878 19.5241 16.9563 19.3431 17.3934C19.162 17.8305 18.8967 18.2276 18.5621 18.5621C17.8865 19.2378 16.9702 19.6173 16.0147 19.6173C15.0593 19.6173 14.1429 19.2378 13.4673 18.5621C12.7917 17.8865 12.4122 16.9702 12.4122 16.0147C12.4122 15.0593 12.7917 14.1429 13.4673 13.4673V13.4673ZM20.4163 12.9487C20.4992 12.8705 20.5656 12.7764 20.6115 12.6721C20.6574 12.5678 20.6819 12.4554 20.6835 12.3414C20.6852 12.2275 20.664 12.1143 20.6211 12.0087C20.5783 11.9031 20.5147 11.8072 20.4341 11.7266C20.3535 11.646 20.2576 11.5824 20.152 11.5396C20.0464 11.4967 19.9333 11.4755 19.8193 11.4772C19.7054 11.4788 19.5929 11.5033 19.4886 11.5492C19.3843 11.5952 19.2903 11.6615 19.2121 11.7444C19.06 11.9056 18.9767 12.1198 18.9799 12.3414C18.9832 12.563 19.0726 12.7746 19.2294 12.9314C19.3861 13.0881 19.5977 13.1776 19.8193 13.1808C20.0409 13.184 20.2551 13.1008 20.4163 12.9487V12.9487Z" fill="url(#paint0_linear_1414_3)">
    <animate attributeName="stop-color" values="#FF6673; #FF7366; #FF9966; #FFBF66; #70CC8F; #62D9C5; #67DBE6; #73D0FF; #8CA9FF; #A98CFF; #FF73B9; #FF6673" dur="5s" repeatCount="indefinite"/>
  </path>
  <defs>
    <linearGradient id="paint0_linear_1414_3" x1="-0.754286" y1="15.2457" x2="32" y2="15.2457" gradientUnits="userSpaceOnUse">
      <stop id="stop1" stop-color="#FF6673">
        <animate attributeName="stop-color" values="#FF6673; #FF7366; #FF9966; #FFBF66; #70CC8F; #62D9C5; #67DBE6; #73D0FF; #8CA9FF; #A98CFF; #FF73B9; #FF6673" dur="5s" repeatCount="indefinite"/>
      </stop>
      <stop id="stop2" offset="0.0989583" stop-color="#FF7366">
        <animate attributeName="stop-color" values="#FF7366; #FF9966; #FFBF66; #70CC8F; #62D9C5; #67DBE6; #73D0FF; #8CA9FF; #A98CFF; #FF73B9; #FF6673; #FF6673" dur="5s" repeatCount="indefinite"/>
      </stop>
      <stop id="stop3" offset="0.208333" stop-color="#FF9966">
        <animate attributeName="stop-color" values="#FF9966; #FFBF66; #70CC8F; #62D9C5; #67DBE6; #73D0FF; #8CA9FF; #A98CFF; #FF73B9; #FF6673; #FF7366; #FF6673" dur="2s" repeatCount="indefinite"/>
      </stop>
      <stop id="stop4" offset="0.333333" stop-color="#FFBF66">
        <animate attributeName="stop-color" values="#FFBF66; #70CC8F; #62D9C5; #67DBE6; #73D0FF; #8CA9FF; #A98CFF; #FF73B9; #FF6673; #FF7366; #FF9966; #FF6673" dur="2s" repeatCount="indefinite"/>
      </stop>
      <stop id="stop5" offset="0.432292" stop-color="#70CC8F">
        <animate attributeName="stop-color" values="#70CC8F; #62D9C5; #67DBE6; #73D0FF; #8CA9FF; #A98CFF; #FF73B9; #FF6673; #FF7366; #FF9966; #FFBF66; #FF6673" dur="2s" repeatCount="indefinite"/>
      </stop>
      <stop id="stop6" offset="0.557292" stop-color="#62D9C5">
        <animate attributeName="stop-color" values="#62D9C5; #67DBE6; #73D0FF; #8CA9FF; #A98CFF; #FF73B9; #FF6673; #FF7366; #FF9966; #FFBF66; #70CC8F; #FF6673" dur="2s" repeatCount="indefinite"/>
      </stop>
      <stop id="stop7" offset="0.640625" stop-color="#67DBE6">
        <animate attributeName="stop-color" values="#67DBE6; #73D0FF; #8CA9FF; #A98CFF; #FF73B9; #FF6673; #FF7366; #FF9966; #FFBF66; #70CC8F; #62D9C5; #FF6673" dur="2s" repeatCount="indefinite"/>
      </stop>
      <stop id="stop8" offset="0.71875" stop-color="#73D0FF">
        <animate attributeName="stop-color" values="#73D0FF; #8CA9FF; #A98CFF; #FF73B9; #FF6673; #FF7366; #FF9966; #FFBF66; #70CC8F; #62D9C5; #67DBE6; #FF6673" dur="2s" repeatCount="indefinite"/>
      </stop>
      <stop id="stop9" offset="0.817708" stop-color="#8CA9FF">
        <animate attributeName="stop-color" values="#8CA9FF; #A98CFF; #FF73B9; #FF6673; #FF7366; #FF9966; #FFBF66; #70CC8F; #62D9C5; #67DBE6; #73D0FF; #FF6673" dur="2s" repeatCount="indefinite"/>
      </stop>
      <stop id="stop10" offset="0.901042" stop-color="#A98CFF">
        <animate attributeName="stop-color" values="#A98CFF; #FF73B9; #FF6673; #FF7366; #FF9966; #FFBF66; #70CC8F; #62D9C5; #67DBE6; #73D0FF; #8CA9FF; #FF6673" dur="2s" repeatCount="indefinite"/>
      </stop>
    </linearGradient>
  </defs>
</svg>
